<?xml version="1.0" standalone="no"?>
<!DOCTYPE svg PUBLIC "-//W3C//DTD SVG 20010904//EN"
 "http://www.w3.org/TR/2001/REC-SVG-20010904/DTD/svg10.dtd">
<svg version="1.0" xmlns="http://www.w3.org/2000/svg"
 width="100.000000pt" height="100.000000pt" viewBox="0 0 100.000000 100.000000"
 preserveAspectRatio="xMidYMid meet">
<metadata>
Created by potrace 1.11, written by Peter Selinger 2001-2013
</metadata>
<g transform="translate(0.000000,100.000000) scale(0.100000,-0.100000)"
fill="#000000" stroke="none">
<path d="M435 880 c-234 -54 -309 -351 -129 -509 189 -166 489 -31 487 220 -1
117 -66 220 -170 269 -49 23 -136 32 -188 20z m174 -46 c206 -95 211 -376 7
-481 -142 -74 -327 8 -372 166 -64 216 161 410 365 315z"/>
<path d="M425 799 c-16 -4 -46 -22 -67 -39 -167 -138 -44 -416 171 -386 221
31 260 336 54 423 -36 15 -112 16 -158 2z m160 -37 c122 -60 144 -220 43 -312
l-33 -31 -5 128 -5 128 -130 5 -130 5 42 42 c62 61 140 74 218 35z m-27 -234
l-3 -123 -48 -3 c-117 -8 -214 100 -199 221 l3 27 125 0 125 0 -3 -122z"/>
<path d="M288 232 c-18 -3 -20 -11 -20 -52 0 -37 2 -40 35 -39 l32 1 -29 13
c-28 12 -29 13 -9 23 11 6 24 8 28 4 5 -4 5 -1 1 6 -4 6 -14 12 -22 12 -8 0
-14 5 -14 11 0 6 7 9 15 6 8 -4 17 -2 20 2 6 11 -15 19 -37 13z"/>
<path d="M746 228 c-21 -46 18 -109 48 -78 18 19 25 72 9 77 -7 3 -13 -9 -15
-29 -4 -44 -22 -38 -29 9 -4 28 -7 34 -13 21z"/>
<path d="M190 221 c0 -5 6 -14 14 -20 8 -7 12 -20 9 -30 -3 -10 0 -22 6 -25 7
-4 11 1 11 14 0 11 7 32 16 45 16 25 7 34 -13 14 -8 -8 -13 -8 -17 0 -9 13
-26 15 -26 2z"/>
<path d="M347 223 c-13 -12 -7 -60 8 -73 8 -7 22 -10 30 -6 37 14 30 86 -9 86
-12 0 -26 -3 -29 -7z m41 -39 c-5 -28 -28 -29 -28 -1 0 13 3 27 7 31 10 10 25
-10 21 -30z"/>
<path d="M420 185 c0 -25 5 -45 10 -45 6 0 10 12 10 28 l1 27 17 -27 c24 -39
32 -35 32 17 0 25 -4 45 -10 45 -5 0 -10 -10 -10 -22 l0 -22 -16 22 c-23 34
-34 27 -34 -23z"/>
<path d="M504 206 c-10 -41 4 -68 34 -64 31 4 46 48 17 48 -11 0 -15 -5 -11
-15 3 -9 0 -15 -9 -15 -9 0 -15 10 -15 26 0 23 3 25 26 20 19 -5 25 -3 22 6
-3 7 -16 14 -31 16 -21 3 -28 -2 -33 -22z"/>
<path d="M584 204 c-9 -35 7 -59 37 -59 17 0 25 6 27 23 2 15 -2 22 -13 22
-11 0 -15 -5 -11 -15 3 -9 0 -15 -9 -15 -9 0 -15 10 -15 26 0 23 3 25 26 20
19 -5 25 -3 22 6 -3 7 -16 14 -31 16 -21 3 -28 -2 -33 -24z"/>
<path d="M672 208 c13 -25 15 -30 17 -54 0 -8 6 -12 11 -9 6 4 8 11 4 16 -3 5
2 21 11 35 19 29 13 43 -9 25 -10 -8 -16 -9 -21 -1 -13 21 -25 9 -13 -12z"/>
</g>
</svg>
